<?xml version="1.0" encoding="utf-8"?>
<!-- Generator: Adobe Illustrator 17.0.0, SVG Export Plug-In . SVG Version: 6.00 Build 0)  -->
<!DOCTYPE svg PUBLIC "-//W3C//DTD SVG 1.1//EN" "http://www.w3.org/Graphics/SVG/1.1/DTD/svg11.dtd">
<svg version="1.1" id="Capa_1" xmlns="http://www.w3.org/2000/svg" xmlns:xlink="http://www.w3.org/1999/xlink" x="0px" y="0px"
	 width="60px" height="60px" viewBox="0 0 60 60" enable-background="new 0 0 60 60" xml:space="preserve">
<g>
	<defs>
		<circle id="SVGID_1_" cx="30.083" cy="30.083" r="29.917"/>
	</defs>
	<clipPath id="SVGID_2_">
		<use xlink:href="#SVGID_1_"  overflow="visible"/>
	</clipPath>
	<rect x="-33" y="-20" clip-path="url(#SVGID_2_)" fill="#F1F1F2" width="128" height="130"/>
	
		<radialGradient id="SVGID_3_" cx="31.6259" cy="48.3433" r="52.4025" gradientTransform="matrix(1.1441 0 0 1.3372 -5.1826 -19.6461)" gradientUnits="userSpaceOnUse">
		<stop  offset="0.2618" style="stop-color:#F1F1F2"/>
		<stop  offset="0.3679" style="stop-color:#EBEBEC;stop-opacity:0.9281"/>
		<stop  offset="0.5081" style="stop-color:#DBDBDB;stop-opacity:0.8332"/>
		<stop  offset="0.6674" style="stop-color:#C1C1C0;stop-opacity:0.7253"/>
		<stop  offset="0.8394" style="stop-color:#9D9D9A;stop-opacity:0.6088"/>
		<stop  offset="1" style="stop-color:#747470;stop-opacity:0.5"/>
	</radialGradient>
	<rect x="-33" y="-20" clip-path="url(#SVGID_2_)" fill="url(#SVGID_3_)" width="128" height="130"/>
	<linearGradient id="SVGID_4_" gradientUnits="userSpaceOnUse" x1="43.2891" y1="46.0063" x2="97.8935" y2="90.7515">
		<stop  offset="0" style="stop-color:#747470"/>
		<stop  offset="0.4607" style="stop-color:#747470;stop-opacity:0"/>
	</linearGradient>
	<polygon opacity="0.5" clip-path="url(#SVGID_2_)" fill="url(#SVGID_4_)" points="105.661,83.088 51.755,41.163 34.968,53.216 
		90.865,96.584 	"/>
	<linearGradient id="SVGID_5_" gradientUnits="userSpaceOnUse" x1="24.7364" y1="50.9089" x2="77.8392" y2="94.4237">
		<stop  offset="0" style="stop-color:#747470"/>
		<stop  offset="0.4607" style="stop-color:#747470;stop-opacity:0"/>
	</linearGradient>
	<polygon opacity="0.5" clip-path="url(#SVGID_2_)" fill="url(#SVGID_5_)" points="78.833,91.706 24.927,49.78 21.601,51.871 
		78.182,95.771 	"/>
	<g clip-path="url(#SVGID_2_)">
		<polygon fill="#262628" points="23.402,24.687 25.696,26.487 25.696,8.055 23.402,9.856 		"/>
		<polygon fill="#262628" points="36.806,9.878 34.512,8.078 34.512,26.472 36.806,24.672 		"/>
		<path fill="#262628" d="M22.688,30.872L8.065,19.396v21.182c0,0.483,0.222,0.938,0.602,1.235L23.339,53.3
			c0.282,0.221,0.624,0.332,0.968,0.332c0.003,0,0.006,0,0.009,0c0.864,0,1.563-0.703,1.563-1.568c0-0.035-0.001-0.068-0.003-0.102
			l-0.205-20.889c-0.402,0.236-0.863,0.365-1.345,0.365C23.735,31.438,23.154,31.237,22.688,30.872z M13.507,33.997
			c1.4,0.809,1.6,0.038,1.602-0.755c0.002-0.634-0.075-1.315-0.153-1.995c-0.077-0.68-0.155-1.337-0.153-1.972
			c0.006-2.085,1.192-2.286,2.868-1.318l0.414,0.239l-0.004,1.247l-0.355-0.205c-1.163-0.672-1.559-0.174-1.563,1.049
			c-0.001,0.522,0.056,1.1,0.133,1.689c0.077,0.612,0.135,1.19,0.133,1.801c0.015,1.462-0.539,1.868-1.427,1.627l0,0.046
			c0.887,0.76,1.436,1.851,1.413,3.289c-0.002,0.613-0.062,1.145-0.143,1.643c-0.081,0.52-0.141,1.008-0.143,1.551
			c-0.004,1.269,0.447,2.233,1.552,2.87l0.355,0.205l-0.004,1.246l-0.414-0.239c-1.636-0.945-2.858-2.466-2.851-4.754
			c0.002-0.613,0.083-1.202,0.163-1.767c0.081-0.566,0.162-1.132,0.163-1.744c0.002-0.702-0.192-1.791-1.593-2.599L13.507,33.997z"
			/>
		<path fill="#262628" d="M37.498,30.872c-0.465,0.365-1.046,0.566-1.637,0.566c-0.515,0-1.007-0.146-1.427-0.414L34.24,52.051
			c-0.006,0.603,0.335,1.157,0.877,1.423c0.22,0.108,0.457,0.161,0.693,0.161c0.345,0,0.687-0.114,0.969-0.335l14.642-11.488
			c0.379-0.298,0.601-0.753,0.601-1.235V19.474L37.498,30.872z M44.51,33.778c-0.002-0.611,0.056-1.189,0.133-1.801
			c0.077-0.589,0.135-1.167,0.133-1.689c-0.003-1.223-0.4-1.721-1.563-1.049l-0.355,0.205l-0.004-1.247l0.414-0.239
			c1.676-0.968,2.862-0.767,2.868,1.318c0.002,0.634-0.076,1.292-0.153,1.972c-0.077,0.68-0.154,1.36-0.153,1.995
			c0.002,0.793,0.202,1.563,1.602,0.755l0.003,1.155c-1.4,0.809-1.595,1.897-1.593,2.599c0.002,0.613,0.083,1.179,0.163,1.744
			c0.081,0.566,0.162,1.155,0.163,1.767c0.006,2.288-1.215,3.81-2.851,4.754l-0.414,0.239l-0.004-1.246l0.355-0.205
			c1.104-0.638,1.555-1.601,1.552-2.87c-0.002-0.544-0.062-1.031-0.143-1.551c-0.081-0.498-0.141-1.031-0.143-1.643
			c-0.023-1.438,0.527-2.528,1.413-3.289l0-0.046C45.049,35.646,44.495,35.24,44.51,33.778z"/>
		<path fill="#0B85D2" d="M29.099,25.507l4.67-17.013c0.211-0.768-0.241-1.562-1.009-1.772c-0.768-0.211-1.562,0.241-1.772,1.009
			l-4.67,17.013c-0.211,0.768,0.241,1.562,1.009,1.772c0.128,0.035,0.256,0.052,0.383,0.052
			C28.343,26.568,28.923,26.148,29.099,25.507z"/>
		<circle fill="#0B85D2" cx="29.873" cy="34.804" r="1.811"/>
		<circle fill="#0B85D2" cx="29.873" cy="43.619" r="1.811"/>
		<g>
			<g>
				<path fill="#262628" d="M22.198,15.502l-7.993,6.197c0.125,0.1,0.251,0.2,0.377,0.299l7.616-5.904V15.502z"/>
			</g>
			<g>
				<path fill="#262628" d="M22.198,17.867l-6.469,5.016c0.041,0.031,0.081,0.062,0.123,0.093c0.087,0.066,0.173,0.134,0.259,0.202
					l6.087-4.72V17.867z"/>
			</g>
			<g>
				<path fill="#262628" d="M22.198,20.232l-4.998,3.875c0.117,0.106,0.234,0.212,0.351,0.319l4.647-3.603V20.232z"/>
			</g>
			<g>
				<path fill="#262628" d="M22.198,22.597l-3.596,2.788c0.118,0.106,0.238,0.211,0.358,0.314l3.238-2.511V22.597z"/>
			</g>
			<g>
				<path fill="#262628" d="M20.995,14.069l-8.268,6.41c0.087,0.073,0.175,0.146,0.261,0.219c0.035,0.03,0.07,0.058,0.105,0.088
					l7.901-6.126V14.069z"/>
			</g>
		</g>
		<g>
			<g>
				<path fill="#262628" d="M37.666,15.55l7.955,6.167c-0.125,0.1-0.25,0.199-0.375,0.298l-7.58-5.877V15.55z"/>
			</g>
			<g>
				<path fill="#262628" d="M37.666,17.904l6.439,4.992c-0.041,0.031-0.081,0.062-0.122,0.093c-0.087,0.065-0.172,0.134-0.258,0.201
					l-6.059-4.697V17.904z"/>
			</g>
			<g>
				<path fill="#262628" d="M37.666,20.257l4.975,3.857c-0.117,0.105-0.233,0.211-0.35,0.318l-4.625-3.586V20.257z"/>
			</g>
			<g>
				<path fill="#262628" d="M37.666,22.611l3.579,2.775c-0.118,0.105-0.237,0.21-0.356,0.313L37.666,23.2V22.611z"/>
			</g>
			<g>
				<path fill="#262628" d="M38.862,14.124l8.229,6.38c-0.087,0.072-0.174,0.145-0.26,0.218c-0.035,0.03-0.07,0.058-0.105,0.088
					l-7.864-6.097V14.124z"/>
			</g>
		</g>
		<path fill="#0B85D2" d="M25.293,27.553L12.192,17.271L25.293,6.99c0.68-0.534,0.799-1.519,0.265-2.199
			c-0.309-0.394-0.769-0.599-1.233-0.599c-0.338,0-0.679,0.109-0.966,0.334L8.688,16.039c-0.378,0.297-0.599,0.751-0.599,1.232
			c0,0.481,0.221,0.935,0.599,1.232l14.672,11.514c0.287,0.225,0.628,0.334,0.966,0.334c0.464,0,0.924-0.206,1.233-0.599
			C26.092,29.071,25.974,28.087,25.293,27.553z"/>
		<path fill="#0B85D2" d="M52.098,17.271c0-0.481-0.221-0.935-0.599-1.232L36.827,4.525c-0.287-0.225-0.627-0.334-0.966-0.334
			c-0.464,0-0.924,0.205-1.233,0.598c-0.534,0.68-0.415,1.664,0.265,2.198l13.102,10.28L34.893,27.546
			c-0.68,0.534-0.799,1.512-0.265,2.193c0.309,0.394,0.768,0.586,1.233,0.586c0,0,0,0,0,0c0.338,0,0.679-0.096,0.966-0.321
			l14.672-11.501C51.877,18.206,52.098,17.752,52.098,17.271z"/>
	</g>
</g>
</svg>
